# xmcd
#
# Track frame offsets: 
#        150
#        12302
#        24698
#        37867
#        50902
#        64347
#        75843
#        88881
#        101612
#        112941
#        125102
#        137878
#        149841
#        162670
#        175804
#        188384
#        202586
#        215246
#        226755
#        238120
#
# Disc length: 3344 seconds
#
# Revision: 4
# Processed by: cddbd v1.5.2PL0 Copyright (c) Steve Scherf et al.
# Submitted via: ExactAudioCopyFreeDBPlugin 1.0
#
DISCID=1c0d0e14
DTITLE=Wynonie Harris - Wynonie Harris:  Rockin' the Blues [Proper Rec
DTITLE=ords]
DYEAR=2001
DGENRE=Rhythm and Blues
TTITLE0=Playful Baby
TTITLE1=Take Me Out of the Rain
TTITLE2=Papa Tree Top
TTITLE3=Young and Wild
TTITLE4=Good Morning Corinne
TTITLE5=Hey! Ba-Ba-Re-Bop, Part 1
TTITLE6=Hey! Ba-Ba-Re-Bop, Part 2
TTITLE7=In the Evenin' Blues
TTITLE8=Dig This Boogie
TTITLE9=Lightnin' Struck the Poor House
TTITLE10=My Baby's Barrel House
TTITLE11=Drinkin' By Myself
TTITLE12=Mr. Blues Jumped the Rabbit
TTITLE13=Rugged Road
TTITLE14=Come Back, Baby
TTITLE15=Whiskey and Jelly Roll Blues
TTITLE16=You Got to Get Yourself a Job, Girl
TTITLE17=Hard Ridin' Mama
TTITLE18=Big City Blues
TTITLE19=Ghost of a Chance
EXTD=YEAR: 2001
EXTT0=
EXTT1=
EXTT2=
EXTT3=
EXTT4=
EXTT5=
EXTT6=
EXTT7=
EXTT8=
EXTT9=
EXTT10=
EXTT11=
EXTT12=
EXTT13=
EXTT14=
EXTT15=
EXTT16=
EXTT17=
EXTT18=
EXTT19=
PLAYORDER=
